<?xml version="1.0" standalone="no"?>
<!DOCTYPE svg PUBLIC "-//W3C//DTD SVG 20010904//EN"
 "http://www.w3.org/TR/2001/REC-SVG-20010904/DTD/svg10.dtd">
<svg version="1.0" xmlns="http://www.w3.org/2000/svg"
 width="742.000000pt" height="742.000000pt" viewBox="0 0 742.000000 742.000000"
 preserveAspectRatio="xMidYMid meet">
<metadata>
Created by potrace 1.14, written by Peter Selinger 2001-2017
</metadata>
<g transform="translate(0.000000,742.000000) scale(0.100000,-0.100000)"
fill="#000000" stroke="none">
<path d="M4405 7360 c-11 -18 33 -134 135 -355 73 -158 127 -324 146 -445 3
-19 7 -42 9 -50 2 -8 7 -37 11 -65 3 -27 7 -52 9 -55 2 -3 6 -34 10 -70 4 -36
9 -74 11 -85 2 -11 4 -55 5 -98 1 -71 -1 -81 -28 -113 -52 -65 -93 -137 -89
-158 6 -28 31 -77 53 -102 60 -67 58 -50 23 -180 -18 -64 -33 -124 -35 -133
-2 -9 -10 -43 -19 -76 -9 -33 -19 -71 -22 -85 -20 -96 -36 -131 -74 -156 -20
-14 -53 -44 -71 -67 -46 -57 -45 -101 4 -184 52 -86 93 -115 166 -119 78 -4
129 26 164 96 45 89 21 188 -62 263 l-41 37 18 32 c27 48 58 146 92 295 39
171 41 176 87 204 73 44 107 108 101 190 -5 66 -33 110 -98 156 l-40 28 -5
175 c-2 96 -6 186 -9 200 -4 25 -10 67 -21 145 -3 22 -8 51 -10 65 -17 91 -23
225 -11 237 3 4 23 -10 44 -29 36 -36 38 -36 71 -22 125 53 183 237 110 348
-91 136 -252 155 -376 42 -22 -20 -43 -36 -47 -36 -4 0 -46 41 -94 90 -86 88
-104 100 -117 80z"/>
<path d="M2944 7339 c-17 -5 -61 -38 -97 -75 l-67 -66 -45 41 c-51 47 -77 56
-165 56 -53 0 -74 -5 -112 -27 -76 -45 -130 -129 -130 -202 0 -81 71 -205 130
-227 30 -11 40 -2 94 83 49 75 62 81 60 28 0 -11 -12 -97 -17 -120 -2 -13 -7
-42 -11 -64 -3 -22 -7 -43 -9 -46 -2 -3 -6 -26 -9 -50 -3 -25 -8 -56 -10 -70
-21 -114 -37 -290 -40 -432 l-1 -97 -53 -54 c-28 -30 -57 -68 -63 -84 -27 -69
-3 -138 76 -214 47 -46 71 -86 81 -134 1 -5 9 -44 18 -85 9 -41 34 -135 56
-208 l40 -133 -38 -52 c-50 -67 -74 -121 -77 -171 -3 -49 10 -76 65 -134 l40
-43 97 3 96 3 12 -35 c28 -80 187 -325 354 -545 76 -101 246 -298 393 -457 51
-56 106 -115 122 -132 16 -17 77 -83 136 -146 119 -127 257 -286 271 -311 7
-13 3 -18 -18 -24 -54 -13 -174 -18 -428 -18 -223 0 -291 2 -420 16 -51 6 1
98 136 238 160 166 199 216 199 257 0 17 -4 32 -8 32 -5 0 -15 11 -22 25 -7
14 -19 25 -26 25 -14 0 -67 -52 -199 -195 -129 -139 -140 -151 -208 -229 -34
-38 -73 -81 -86 -95 -42 -46 -83 -112 -164 -260 -95 -177 -105 -188 -152 -183
-46 6 -113 -28 -162 -81 -47 -51 -54 -104 -24 -171 17 -39 96 -126 113 -126
14 0 9 -28 -7 -33 -26 -11 -58 -91 -86 -219 -15 -70 -30 -148 -33 -173 -3 -26
-8 -50 -10 -53 -2 -4 -7 -32 -10 -62 -11 -98 -16 -115 -44 -134 -52 -38 -99
-94 -106 -126 -16 -83 -7 -108 75 -195 38 -41 43 -57 54 -185 7 -70 42 -280
58 -345 15 -56 33 -69 105 -79 41 -5 42 -4 42 22 0 15 -5 45 -9 67 -5 22 -12
57 -15 78 -3 20 -9 54 -12 75 -21 126 -28 332 -12 358 7 12 26 42 41 67 16 25
30 65 33 89 4 40 1 47 -42 96 -54 61 -61 94 -44 185 6 34 13 71 15 82 2 11 4
20 5 20 1 0 3 7 5 15 1 8 13 56 25 105 12 50 23 99 26 110 2 11 7 34 11 50 4
17 7 32 8 35 0 3 5 23 10 45 5 22 9 43 9 47 1 4 23 38 50 75 65 90 85 135 81
192 -1 25 5 60 13 76 28 59 115 195 123 195 5 0 9 6 9 13 0 8 24 39 53 70 l52
57 360 5 c390 6 616 12 682 20 24 2 49 2 57 -1 13 -5 96 -115 96 -128 0 -3 15
-29 33 -58 53 -84 113 -207 137 -283 29 -86 106 -176 155 -178 60 -3 134 23
159 57 60 78 67 159 21 226 -37 53 -101 111 -117 105 -7 -2 -39 -6 -72 -9 -51
-4 -59 -3 -63 15 -3 10 -9 19 -14 19 -5 0 -9 6 -9 13 0 14 -107 191 -147 243
-13 16 -40 54 -62 84 -22 30 -44 60 -48 65 -5 6 -35 44 -68 85 -57 72 -93 115
-125 150 -8 9 -44 50 -80 90 -36 41 -78 88 -95 106 -16 17 -46 49 -65 71 -19
22 -67 75 -106 119 -39 43 -95 106 -125 139 -29 33 -58 65 -63 71 -6 6 -29 33
-51 60 -22 26 -47 55 -55 64 -45 47 -277 349 -305 398 -11 17 -23 32 -27 32
-4 0 -8 4 -8 10 0 14 -125 203 -161 245 -28 31 -31 40 -25 73 22 114 11 150
-73 237 -49 50 -63 74 -81 131 -19 63 -75 270 -86 319 -2 11 -10 45 -17 75
-13 54 -13 56 17 100 38 56 55 104 56 157 0 38 -5 46 -61 100 l-60 58 6 101
c3 55 7 109 9 120 2 10 7 46 10 79 10 84 16 125 23 160 4 17 7 37 8 45 7 50
20 98 56 205 22 66 44 129 49 140 5 11 19 45 30 75 31 82 61 148 99 220 60
115 63 121 57 135 -6 17 -8 17 -52 4z"/>
<path d="M2244 6898 c-106 -86 -488 -456 -541 -525 -25 -33 -25 -63 0 -63 31
0 165 119 440 391 136 134 188 192 185 205 -5 30 -40 27 -84 -8z"/>
<path d="M5092 6918 c-38 -38 5 -89 334 -394 247 -230 275 -250 287 -204 4 14
-7 36 -32 68 -40 50 -233 239 -390 382 -52 47 -101 92 -110 100 -44 41 -78 59
-89 48z"/>
<path d="M3907 6894 c-1 -1 -198 -5 -437 -8 -621 -9 -563 -4 -577 -46 -20 -59
-17 -70 20 -70 153 -2 1254 8 1490 12 64 2 107 7 108 13 1 5 0 24 -1 40 -4 63
9 60 -310 60 -160 0 -292 -1 -293 -1z"/>
<path d="M1379 6372 c-114 -37 -187 -132 -194 -253 -3 -46 2 -68 26 -119 16
-34 29 -63 29 -65 0 -1 -33 -29 -72 -62 -77 -64 -483 -464 -581 -573 -59 -65
-68 -95 -30 -95 33 0 129 89 541 497 l193 191 45 -22 c97 -47 175 -36 277 37
72 52 89 93 91 222 1 85 -17 133 -69 186 -65 67 -159 87 -256 56z"/>
<path d="M5886 6373 c-2 -3 -10 -6 -18 -7 -47 -8 -112 -65 -144 -126 -22 -43
-25 -184 -5 -244 16 -45 5 -73 -37 -99 -15 -9 -54 -41 -87 -72 -288 -268 -609
-583 -683 -669 -78 -91 -41 -125 51 -46 73 62 400 376 626 600 102 102 188
184 191 183 139 -52 209 -58 287 -23 54 24 69 25 80 6 15 -26 145 -166 283
-304 216 -217 358 -348 412 -381 l38 -22 -22 -42 c-48 -95 -53 -165 -19 -263
l21 -59 -84 -85 c-662 -668 -697 -702 -719 -695 -88 27 -157 27 -223 -1 -47
-20 -130 -102 -149 -147 -22 -53 -18 -151 10 -219 23 -57 24 -55 -30 -96 -90
-70 -835 -795 -835 -813 0 -4 12 -17 27 -29 l27 -21 129 128 c71 70 265 264
432 431 167 166 308 302 314 302 6 0 26 -11 46 -24 20 -14 55 -28 78 -31 23
-4 51 -8 62 -9 11 -2 37 3 58 10 l39 14 71 -77 c212 -226 714 -714 746 -724 7
-3 3 -20 -12 -49 -32 -65 -31 -215 1 -280 l23 -45 -43 -38 c-175 -158 -518
-491 -610 -596 -65 -73 -65 -124 0 -88 25 14 325 301 552 528 l146 146 60 -17
c112 -32 205 -10 280 65 60 60 81 114 78 201 -4 121 -69 211 -174 241 -32 10
-156 10 -167 0 -7 -5 -13 -7 -13 -3 0 4 -19 -3 -42 -15 l-42 -21 -45 53 c-25
29 -199 208 -386 397 -187 189 -340 347 -340 350 0 4 10 26 22 48 27 50 61
171 57 199 -15 105 -20 118 -66 169 l-27 31 30 16 c48 24 181 149 489 455
l282 280 63 -21 c80 -27 91 -36 99 -83 3 -20 8 -50 11 -67 10 -57 15 -90 20
-130 3 -22 8 -56 11 -75 7 -38 7 -40 24 -145 17 -109 21 -136 27 -197 l5 -56
-50 -37 c-83 -59 -113 -129 -98 -230 6 -37 18 -57 59 -101 29 -29 60 -54 69
-54 25 0 25 -7 3 -150 -2 -14 -11 -74 -20 -135 -49 -344 -58 -432 -47 -439 5
-3 18 -2 30 1 28 7 50 79 68 223 2 19 6 44 8 55 3 11 8 45 11 75 3 30 8 62 10
70 2 8 7 38 10 66 3 28 7 59 9 70 2 10 7 47 11 80 6 60 8 62 46 80 83 37 130
118 125 217 -4 89 -34 141 -109 186 -21 13 -43 34 -48 48 -8 22 -12 43 -24
148 -3 22 -7 51 -10 65 -2 14 -7 45 -10 70 -8 60 -13 92 -39 240 -8 47 -19
105 -25 130 -15 64 -15 65 24 83 88 42 155 138 157 224 4 164 -101 282 -253
284 -48 1 -120 -15 -150 -34 -17 -10 -25 -5 -66 43 -25 30 -180 189 -344 353
-203 203 -303 297 -318 297 -24 0 -28 28 -9 63 7 12 13 27 14 32 1 6 6 28 12
51 42 180 -83 333 -270 332 -32 -1 -60 -3 -62 -5z"/>
<path d="M4066 6283 c-1 -1 -256 -5 -566 -8 -311 -4 -601 -8 -645 -9 l-79 -2
-7 -32 c-4 -17 -4 -32 -2 -32 3 0 1 -6 -5 -13 -24 -28 2 -36 103 -31 55 2 469
6 920 9 451 2 835 5 853 5 l32 0 0 60 0 60 -301 -2 c-165 -2 -301 -4 -303 -5z"/>
<path d="M1664 5916 c-3 -14 -3 -35 2 -48 8 -25 653 -673 752 -756 35 -28 69
-52 76 -52 24 0 25 28 3 57 -98 124 -792 822 -819 823 -4 0 -10 -11 -14 -24z"/>
<path d="M3660 5831 c-120 -45 -138 -181 -37 -280 36 -34 90 -45 139 -29 31
11 84 68 100 107 33 85 -12 187 -92 208 -40 10 -70 9 -110 -6z"/>
<path d="M3017 5683 c-1 0 -42 -3 -92 -6 -105 -5 -123 -11 -127 -40 -7 -42 12
-67 51 -68 134 -5 543 6 590 16 37 7 51 25 51 67 l0 39 -236 -3 c-130 -2 -236
-4 -237 -5z"/>
<path d="M4043 5679 c-86 -6 -105 -19 -101 -68 l3 -35 330 0 330 0 9 43 c15
70 12 71 -263 68 -130 -1 -268 -5 -308 -8z"/>
<path d="M246 5225 c-70 -28 -110 -58 -136 -100 -49 -79 -43 -209 14 -290 22
-33 87 -95 98 -95 4 0 14 -7 23 -16 16 -16 16 -52 -1 -139 -2 -11 -7 -45 -10
-75 -3 -30 -7 -62 -9 -70 -3 -8 -7 -35 -10 -60 -3 -25 -7 -56 -10 -70 -9 -63
-18 -130 -30 -235 -10 -83 -23 -112 -56 -125 -36 -15 -71 -58 -100 -125 -39
-89 -6 -196 83 -264 25 -20 49 -47 52 -61 10 -42 16 -73 21 -115 2 -22 7 -51
10 -65 3 -14 7 -38 10 -55 10 -70 25 -162 29 -185 3 -14 7 -41 10 -60 3 -19 8
-44 10 -55 2 -12 7 -46 11 -78 7 -53 9 -57 33 -57 35 0 19 -12 -50 -40 -98
-38 -149 -113 -153 -224 -4 -94 15 -151 67 -208 84 -90 197 -118 297 -73 l43
19 35 -39 c159 -181 653 -655 682 -655 4 0 16 6 26 14 18 13 12 21 -86 121
-135 139 -411 412 -518 512 l-85 80 19 44 c51 124 50 244 -1 326 -12 19 -11
23 14 39 63 41 451 417 681 660 57 60 108 108 113 106 11 -3 114 -15 135 -15
19 0 146 54 167 72 10 9 30 39 44 66 21 41 26 64 26 125 -1 174 -85 269 -246
277 -84 4 -139 -17 -193 -73 -58 -59 -79 -109 -79 -186 0 -59 6 -78 41 -148
l40 -81 -90 -87 c-50 -48 -228 -223 -396 -389 -168 -167 -306 -303 -308 -303
-1 0 -42 13 -90 30 l-88 29 -2 37 c-1 40 -10 122 -17 164 -4 27 -13 94 -21
175 -3 28 -10 73 -15 100 -5 28 -12 73 -15 100 -2 28 -7 66 -10 86 -6 33 -3
38 32 64 73 56 113 117 118 183 2 32 -12 89 -25 102 -3 3 -17 21 -32 42 -15
20 -45 46 -65 59 -21 12 -39 24 -41 25 -2 1 8 76 23 166 14 89 28 179 31 198
2 19 9 60 14 90 9 50 14 87 25 160 17 120 8 107 106 155 81 40 89 42 89 24 0
-45 17 -65 278 -325 358 -357 456 -445 481 -430 33 21 -38 104 -399 462 -223
221 -310 304 -321 304 -16 0 -18 35 -5 55 43 66 51 203 16 279 -55 120 -203
174 -334 121z"/>
<path d="M1437 5068 c-115 -59 -82 -251 45 -262 39 -4 101 27 123 61 39 59 16
160 -45 196 -43 26 -80 27 -123 5z"/>
<path d="M5870 5073 c-117 -60 -87 -252 42 -269 54 -7 104 23 132 80 37 75 18
138 -52 179 -46 27 -82 30 -122 10z"/>
<path d="M3187 5044 c-1 -1 -27 -3 -57 -5 -80 -4 -80 -4 -80 -71 l0 -59 428 6
c461 6 827 14 854 18 25 4 32 14 34 48 2 24 -3 32 -24 40 -14 6 -123 12 -242
15 -229 6 -909 12 -913 8z"/>
<path d="M4433 4768 c-17 -18 -65 -82 -106 -143 -42 -60 -89 -125 -104 -144
-27 -31 -32 -33 -59 -24 -30 10 -292 9 -649 -1 -176 -6 -212 -9 -222 -23 -8
-11 -9 -21 -2 -34 23 -45 58 -49 459 -53 286 -4 340 -8 340 -30 0 -6 -24 -36
-53 -67 -300 -320 -300 -320 -288 -351 10 -25 57 -78 70 -78 9 0 108 104 205
215 39 44 75 85 80 90 6 6 33 37 61 70 27 33 58 69 68 80 30 33 190 245 236
313 46 68 71 128 63 152 -7 21 -43 60 -57 60 -6 0 -25 -15 -42 -32z"/>
<path d="M2410 4683 c-184 -172 -675 -662 -692 -691 -10 -16 -13 -33 -9 -41
11 -17 51 4 111 58 213 193 700 673 718 708 10 17 8 25 -6 43 -17 21 -17 21
-122 -77z"/>
<path d="M4857 4755 c-9 -23 0 -55 26 -89 22 -28 205 -211 333 -333 153 -145
293 -275 312 -291 13 -9 40 -34 62 -54 38 -36 76 -55 87 -44 22 22 -28 80
-296 346 -359 356 -489 480 -506 480 -7 0 -15 -7 -18 -15z"/>
<path d="M1690 3556 c0 -9 12 -31 27 -49 62 -72 750 -757 773 -768 60 -29 82
-11 43 35 -128 154 -575 604 -733 738 -61 51 -110 71 -110 44z"/>
<path d="M1434 2698 c-17 -12 -42 -37 -54 -55 -44 -65 -9 -188 63 -218 148
-62 262 195 119 269 -53 27 -94 29 -128 4z"/>
<path d="M5875 2691 c-75 -46 -98 -107 -69 -181 29 -72 92 -107 164 -91 10 2
56 47 78 75 44 58 15 159 -58 196 -49 25 -77 25 -115 1z"/>
<path d="M3066 2503 c-2 -2 -20 -5 -40 -7 -21 -2 -39 -6 -41 -7 -2 -2 -8 -28
-13 -56 -7 -38 -6 -53 2 -54 41 -3 1477 -1 1480 2 4 5 -19 97 -27 105 -3 3
-70 7 -149 9 -79 2 -143 5 -143 5 0 4 -1066 6 -1069 3z"/>
<path d="M2445 2393 c-193 -173 -674 -645 -732 -719 -32 -41 -32 -63 0 -58 15
2 78 47 123 89 28 25 313 296 364 345 57 56 205 191 250 230 13 11 39 30 57
41 38 24 37 22 19 58 -27 51 -37 53 -81 14z"/>
<path d="M4915 2380 c-10 -11 -15 -20 -10 -20 4 0 2 -7 -6 -16 -11 -14 -2 -26
72 -95 46 -44 105 -100 132 -123 46 -42 205 -191 423 -396 85 -81 159 -140
172 -140 7 0 12 11 12 25 0 17 -21 47 -64 92 -63 67 -344 346 -482 479 -40 38
-106 102 -147 142 -41 39 -77 72 -79 72 -3 0 -13 -9 -23 -20z"/>
<path d="M4664 2306 c-14 -11 -16 -23 -11 -67 3 -30 8 -63 11 -74 2 -11 18
-78 35 -150 16 -71 32 -142 35 -158 3 -15 7 -35 10 -45 3 -9 7 -28 10 -42 2
-14 9 -44 14 -67 10 -42 9 -42 -39 -87 -57 -52 -71 -82 -68 -143 2 -38 9 -50
56 -96 49 -48 53 -55 47 -87 -3 -19 -7 -48 -9 -65 -2 -16 -6 -46 -10 -65 -8
-46 -10 -61 -25 -155 -7 -44 -14 -88 -16 -99 -2 -10 -6 -43 -10 -74 -3 -30 -8
-63 -9 -71 -2 -9 -4 -26 -4 -39 -1 -13 -21 -44 -46 -71 -42 -44 -95 -143 -95
-176 0 -15 -79 -207 -89 -215 -9 -8 -79 -155 -81 -171 -6 -36 1 -49 24 -49 32
0 115 76 157 142 57 93 54 91 109 62 26 -14 76 -31 111 -38 55 -11 71 -11 109
2 45 15 103 52 128 82 75 90 80 251 10 318 -40 40 -112 76 -180 92 -61 14 -67
20 -43 40 14 11 38 79 50 141 12 57 35 208 40 259 15 156 13 152 67 204 123
121 106 241 -44 316 -16 7 -28 20 -28 29 -3 76 -11 175 -20 216 -5 28 -12 68
-16 90 -3 22 -10 58 -16 80 -10 41 -15 62 -24 103 -7 35 -36 106 -48 119 -17
17 -73 23 -92 9z"/>
<path d="M3660 1925 c-7 -8 -18 -15 -26 -15 -7 0 -25 -16 -41 -36 -21 -28 -27
-47 -27 -83 0 -59 23 -94 80 -121 l45 -21 53 24 c68 32 94 60 102 113 12 82
-52 154 -137 154 -20 0 -42 -7 -49 -15z"/>
<path d="M3227 1843 c-1 0 -97 -3 -212 -6 -252 -6 -265 -9 -265 -48 0 -56 13
-58 345 -54 424 6 400 2 415 69 7 30 5 36 -9 37 -25 2 -272 4 -274 2z"/>
<path d="M3923 1831 c-6 -3 -9 -17 -8 -31 4 -50 12 -56 73 -57 31 -1 68 -2 82
-2 14 -1 53 -1 88 1 34 2 62 1 62 -2 0 -3 101 -5 225 -5 l225 0 0 36 c0 20 -7
42 -15 49 -11 10 -103 13 -369 15 -194 2 -358 0 -363 -4z"/>
<path d="M1440 1669 c-49 -7 -107 -27 -128 -43 -40 -31 -95 -95 -107 -121 -20
-47 -12 -143 17 -206 66 -145 204 -202 336 -139 33 15 63 33 66 39 11 18 36
13 36 -8 0 -29 126 -164 381 -405 179 -170 240 -213 280 -201 40 13 18 37
-382 416 -85 80 -178 168 -208 196 -53 49 -53 50 -43 84 27 84 35 192 18 247
-12 40 -76 108 -115 124 -14 5 -39 12 -56 14 -16 3 -34 6 -40 7 -5 2 -30 0
-55 -4z"/>
<path d="M5865 1654 c-74 -25 -160 -115 -169 -177 -1 -9 -5 -19 -8 -22 -10
-11 2 -102 22 -160 16 -47 18 -61 8 -70 -7 -6 -47 -40 -88 -76 -41 -35 -87
-75 -101 -89 -14 -14 -75 -71 -135 -126 -238 -221 -335 -327 -317 -345 11 -11
73 8 73 22 0 5 6 9 14 9 8 0 16 4 18 8 2 5 41 42 88 83 47 41 92 81 100 89 9
8 83 78 165 155 81 77 168 160 193 184 l45 43 61 -25 c120 -50 238 -26 323 66
47 50 63 96 67 186 6 123 -67 221 -183 246 -57 12 -140 12 -176 -1z"/>
<path d="M2750 1229 c4 -22 12 -45 17 -50 5 -5 93 -11 196 -13 103 -3 190 -6
195 -8 10 -5 1363 -1 1429 4 65 5 83 20 83 69 l0 39 -964 0 -963 0 7 -41z"/>
<path d="M2546 694 c-59 -21 -145 -100 -172 -158 -24 -51 -33 -153 -16 -170 4
-4 7 -11 7 -14 1 -13 28 -57 49 -80 26 -29 98 -63 140 -66 17 -1 51 1 75 6 44
8 133 47 139 61 2 4 11 7 20 7 11 -1 27 -22 44 -58 32 -70 79 -136 112 -157
20 -14 29 -14 48 -4 36 19 38 30 13 78 -41 82 -101 148 -143 158 -23 6 -36 15
-35 24 1 8 7 37 13 64 17 78 14 138 -8 181 -56 109 -180 165 -286 128z"/>
<path d="M3078 675 c-2 -2 -39 -4 -83 -6 -100 -3 -120 -11 -103 -42 7 -12 12
-25 13 -29 1 -31 25 -32 713 -32 378 0 723 3 767 6 75 7 82 9 107 40 33 40 31
51 -8 55 -37 5 -1402 12 -1406 8z"/>
</g>
</svg>
